<svg width="70" height="72" viewBox="0 0 70 72" fill="none" xmlns="http://www.w3.org/2000/svg">
<g filter="url(#filter0_d)">
<path d="M54.7273 17V19.7826H66V17H54.7273ZM29.3636 21.1739V23.9565H40.6364V21.1739H29.3636ZM54.7273 21.1739V23.9565H66V21.1739H54.7273ZM29.3636 25.3478V28.1304H40.6364V25.3478H29.3636ZM54.7273 25.3478V28.1304H66V25.3478H54.7273ZM4 29.5217V32.3043H15.2727V29.5217H4ZM29.3636 29.5217V32.3043H40.6364V29.5217H29.3636ZM42.0455 29.5217V32.3043H53.3182V29.5217H42.0455ZM54.7273 29.5217V32.3043H66V29.5217H54.7273ZM4 33.6957V36.4783H15.2727V33.6957H4ZM29.3636 33.6957V36.4783H40.6364V33.6957H29.3636ZM42.0455 33.6957V36.4783H53.3182V33.6957H42.0455ZM54.7273 33.6957V36.4783H66V33.6957H54.7273ZM4 37.8696V40.6522H15.2727V37.8696H4ZM16.6818 37.8696V40.6522H27.9545V37.8696H16.6818ZM29.3636 37.8696V40.6522H40.6364V37.8696H29.3636ZM42.0455 37.8696V40.6522H53.3182V37.8696H42.0455ZM54.7273 37.8696V40.6522H66V37.8696H54.7273ZM4 42.0435V44.8261H15.2727V42.0435H4ZM16.6818 42.0435V44.8261H27.9545V42.0435H16.6818ZM29.3636 42.0435V44.8261H40.6364V42.0435H29.3636ZM42.0455 42.0435V44.8261H53.3182V42.0435H42.0455ZM54.7273 42.0435V44.8261H66V42.0435H54.7273ZM4 46.2174V49H15.2727V46.2174H4ZM16.6818 46.2174V49H27.9545V46.2174H16.6818ZM29.3636 46.2174V49H40.6364V46.2174H29.3636ZM42.0455 46.2174V49H53.3182V46.2174H42.0455ZM54.7273 46.2174V49H66V46.2174H54.7273Z" fill="black"/>
</g>
<defs>
<filter id="filter0_d" x="-2" y="0" width="72" height="72" filterUnits="userSpaceOnUse" color-interpolation-filters="sRGB">
<feFlood flood-opacity="0" result="BackgroundImageFix"/>
<feColorMatrix in="SourceAlpha" type="matrix" values="0 0 0 0 0 0 0 0 0 0 0 0 0 0 0 0 0 0 127 0"/>
<feOffset dy="4"/>
<feGaussianBlur stdDeviation="2"/>
<feColorMatrix type="matrix" values="0 0 0 0 0 0 0 0 0 0 0 0 0 0 0 0 0 0 0.25 0"/>
<feBlend mode="normal" in2="BackgroundImageFix" result="effect1_dropShadow"/>
<feBlend mode="normal" in="SourceGraphic" in2="effect1_dropShadow" result="shape"/>
</filter>
</defs>
</svg>
