<svg width="35" height="36" viewBox="0 0 35 36" fill="none" xmlns="http://www.w3.org/2000/svg">
<path d="M24.7916 3H10.2083C6.18122 3 2.91663 6.35786 2.91663 10.5V25.5C2.91663 29.6421 6.18122 33 10.2083 33H24.7916C28.8187 33 32.0833 29.6421 32.0833 25.5V10.5C32.0833 6.35786 28.8187 3 24.7916 3Z" stroke="black" stroke-width="2" stroke-linecap="round" stroke-linejoin="round"/>
<path d="M23.3332 17.055C23.5132 18.3034 23.3059 19.5783 22.7408 20.6985C22.1757 21.8187 21.2815 22.7271 20.1856 23.2945C19.0896 23.8619 17.8476 24.0594 16.6362 23.8589C15.4248 23.6584 14.3058 23.0701 13.4382 22.1778C12.5706 21.2854 11.9986 20.1343 11.8037 18.8883C11.6088 17.6424 11.8008 16.3649 12.3524 15.2376C12.904 14.1103 13.7872 13.1906 14.8763 12.6094C15.9654 12.0281 17.2049 11.8149 18.4186 12C19.6566 12.1889 20.8028 12.7822 21.6877 13.6925C22.5727 14.6027 23.1496 15.7816 23.3332 17.055Z" stroke="black" stroke-width="2" stroke-linecap="round" stroke-linejoin="round"/>
<path d="M25.5208 9.75H25.5358" stroke="black" stroke-width="2" stroke-linecap="round" stroke-linejoin="round"/>
</svg>
