<svg width="64" height="64" viewBox="0 0 64 64" fill="none" xmlns="http://www.w3.org/2000/svg">
<path d="M10.6663 13C10.3483 13 10.0313 13.1219 9.78866 13.3646L0.364007 22.7892C-0.121336 23.2745 -0.121336 24.0591 0.364007 24.5444L9.78866 33.969C10.274 34.4544 11.0586 34.4544 11.5439 33.969L20.9685 24.5444C21.2112 24.3018 21.3331 23.9848 21.3331 23.6668C21.3331 23.3488 21.2112 23.0319 20.9685 22.7892L11.5439 13.3646C11.3012 13.1219 10.9843 13 10.6663 13ZM21.3331 23.6668C21.3331 23.9848 21.4551 24.3018 21.6977 24.5444L31.1224 33.969C31.3651 34.2117 31.682 34.3336 32 34.3336C32.318 34.3336 32.6349 34.2117 32.8776 33.969L42.3023 24.5444C42.5449 24.3018 42.6669 23.9848 42.6669 23.6668C42.6669 23.3488 42.5449 23.0319 42.3023 22.7892L32.8776 13.3646C32.3923 12.8792 31.6077 12.8792 31.1224 13.3646L21.6977 22.7892C21.4551 23.0319 21.3331 23.3488 21.3331 23.6668ZM42.6669 23.6668C42.6669 23.9848 42.7888 24.3018 43.0314 24.5444L52.4561 33.969C52.9414 34.4544 53.726 34.4544 54.2113 33.969L63.636 24.5444C64.1213 24.0591 64.1213 23.2745 63.636 22.7892L54.2113 13.3646C53.726 12.8792 52.9414 12.8792 52.4561 13.3646L43.0314 22.7892C42.7888 23.0319 42.6669 23.3488 42.6669 23.6668ZM32 34.3336C31.682 34.3336 31.3651 34.4555 31.1224 34.6982L21.6977 44.1228C21.2124 44.6082 21.2124 45.3927 21.6977 45.8781L31.1224 55.3027C31.6077 55.788 32.3923 55.788 32.8776 55.3027L42.3023 45.8781C42.7876 45.3927 42.7876 44.6082 42.3023 44.1228L32.8776 34.6982C32.6349 34.4555 32.318 34.3336 32 34.3336Z" fill="black"/>
</svg>
