<svg width="35" height="36" viewBox="0 0 35 36" fill="none" xmlns="http://www.w3.org/2000/svg">
<g clip-path="url(#clip0)">
<path d="M32.3855 10.3275C32.2123 9.67494 31.8595 9.07704 31.3627 8.59418C30.8659 8.11133 30.2428 7.76063 29.5563 7.5775C27.048 7 17.0147 7 17.0147 7C17.0147 7 6.98133 7 4.473 7.6325C3.78649 7.81563 3.16338 8.16633 2.66663 8.64918C2.16988 9.13204 1.81707 9.72994 1.64383 10.3825C1.18477 12.7826 0.960221 15.2174 0.973002 17.6563C0.956638 20.1134 1.1812 22.5668 1.64383 24.985C1.83482 25.6173 2.19553 26.1925 2.69113 26.6549C3.18672 27.1174 3.80045 27.4515 4.473 27.625C6.98133 28.2575 17.0147 28.2575 17.0147 28.2575C17.0147 28.2575 27.048 28.2575 29.5563 27.625C30.2428 27.4419 30.8659 27.0912 31.3627 26.6083C31.8595 26.1255 32.2123 25.5276 32.3855 24.875C32.841 22.4929 33.0656 20.0767 33.0563 17.6563C33.0727 15.1991 32.8481 12.7457 32.3855 10.3275Z" stroke="black" stroke-width="2" stroke-linecap="round" stroke-linejoin="round"/>
<path d="M13.7334 22.1525L22.1188 17.6562L13.7334 13.16V22.1525Z" stroke="black" stroke-width="2" stroke-linecap="round" stroke-linejoin="round"/>
</g>
<defs>
<clipPath id="clip0">
<rect width="35" height="36" fill="white"/>
</clipPath>
</defs>
</svg>
