<svg width="64" height="64" viewBox="0 0 64 64" fill="none" xmlns="http://www.w3.org/2000/svg">
<g clip-path="url(#clip0)">
<path d="M62.2414 17.9062C61.6591 14.7449 58.8842 12.4426 55.6639 11.7239C50.845 10.7187 41.9266 10 32.2773 10C22.6338 10 13.5726 10.7187 8.74796 11.7239C5.53344 12.4426 2.75286 14.5989 2.17047 17.9062C1.58238 21.5 1 26.5312 1 33C1 39.4688 1.58238 44.5 2.31321 48.0938C2.9013 51.2551 5.67618 53.5574 8.8907 54.2761C14.0065 55.2813 22.7765 56 32.4258 56C42.075 56 50.845 55.2813 55.9608 54.2761C59.1754 53.5574 61.9502 51.4011 62.5383 48.0938C63.1207 44.5 63.8515 39.3228 64 33C63.7031 26.5312 62.9723 21.5 62.2414 17.9062ZM24.3866 43.0625V22.9375L42.2178 33L24.3866 43.0625Z" fill="black"/>
</g>
<defs>
<clipPath id="clip0">
<rect width="62" height="62" fill="white" transform="translate(2 2)"/>
</clipPath>
</defs>
</svg>
